<?xml version="1.0" encoding="UTF-8"?>
<svg id="_图层_1" data-name="图层 1" xmlns="http://www.w3.org/2000/svg" xmlns:xlink="http://www.w3.org/1999/xlink" viewBox="0 0 500 500">
  <defs>
    <style>
      .cls-1 {
        fill: #fff;
      }

      .cls-2 {
        opacity: .6;
      }

      .cls-2, .cls-3, .cls-4 {
        fill: #08c;
      }

      .cls-5 {
        fill: #3eb6ff;
      }

      .cls-6 {
        fill: url(#_未命名的渐变_11);
      }

      .cls-3 {
        opacity: .8;
      }

      .cls-7 {
        fill: #55c6ff;
        opacity: .4;
      }
    </style>
    <linearGradient id="_未命名的渐变_11" data-name="未命名的渐变 11" x1="83.88" y1="139.05" x2="351.87" y2="407.04" gradientUnits="userSpaceOnUse">
      <stop offset=".17" stop-color="#3eb6ff"/>
      <stop offset=".82" stop-color="#6cd5ff"/>
    </linearGradient>
  </defs>
  <ellipse class="cls-1" cx="352.39" cy="296.51" rx="109.68" ry="110.36"/>
  <path class="cls-5" d="m352.06,186.17c-.11,0-.22-.02-.33-.02-1.2,0-2.35.18-3.54.21,1.3-.05,2.57-.19,3.87-.2Z"/>
  <path class="cls-6" d="m242.71,296.51c0-56.89,42.79-103.69,97.75-109.68-.64.07-1.3.04-1.93.12-24.27-55.26-79.49-93.83-143.7-93.83-86.68,0-156.9,70.22-156.9,156.85s70.22,156.9,156.9,156.9h156.9c.11,0,.22-.02.33-.02-60.42-.18-109.35-49.5-109.35-110.34Z"/>
  <path class="cls-5" d="m461.85,300.88c.06-1.45.22-2.88.22-4.34,0,0,0,0,0-.01,0,1.47-.16,2.9-.22,4.35Z"/>
  <path class="cls-5" d="m461.5,307.81c-.02.18-.06.35-.08.53.02-.18.06-.35.08-.53Z"/>
  <ellipse class="cls-7" cx="352.39" cy="296.51" rx="109.68" ry="110.36"/>
  <path class="cls-7" d="m349.53,274.06l-11.09-86.99c4.63-.6,9.29-.9,13.96-.9,60.17,0,109.68,49.82,109.68,110.36s-49.51,110.36-109.68,110.36c-43.77,0-83.52-26.36-100.79-66.83l79.99-34.55c12.31-5.32,19.62-18.14,17.93-31.45Z"/>
  <g>
    <path class="cls-4" d="m181.1,315.36c-5.14,0-9.31-4.17-9.31-9.31v-122.82c0-5.14,4.17-9.31,9.31-9.31s9.31,4.17,9.31,9.31v122.82c0,5.14-4.17,9.31-9.31,9.31Z"/>
    <g>
      <path class="cls-4" d="m181.1,316.28c-2.38,0-4.76-.91-6.58-2.73-3.64-3.64-3.64-9.53,0-13.17l49.5-49.5c3.63-3.64,9.53-3.64,13.16,0,3.64,3.64,3.64,9.53,0,13.16l-49.5,49.5c-1.82,1.82-4.2,2.73-6.58,2.73Z"/>
      <path class="cls-4" d="m181.1,316.28c-2.38,0-4.76-.91-6.58-2.73l-49.5-49.5c-3.64-3.63-3.64-9.53,0-13.16s9.53-3.64,13.16,0l49.5,49.5c3.64,3.64,3.64,9.53,0,13.17-1.82,1.82-4.2,2.73-6.58,2.73Z"/>
    </g>
  </g>
  <circle class="cls-2" cx="152.95" cy="352.93" r="9.37"/>
  <circle class="cls-3" cx="181.1" cy="352.93" r="9.37"/>
  <circle class="cls-4" cx="209.25" cy="352.93" r="9.37"/>
</svg>